<svg viewBox="0 0 168 168.004" height="168.004" width="168" xmlns:xlink="http://www.w3.org/1999/xlink" xmlns="http://www.w3.org/2000/svg" id="Group_166">
  <defs>
    <clipPath id="clip-path">
      <rect fill="none" height="168.004" width="168" id="Rectangle_58"></rect>
    </clipPath>
  </defs>
  <g clip-path="url(#clip-path)" id="Group_165">
    <path fill="#fff" transform="translate(0 -0.001)" d="M168,84A84,84,0,1,1,84,0a84,84,0,0,1,84,84" id="Path_29438"></path>
    <path fill="#005a99" transform="translate(-111.506 -108.111)" d="M151.631,151.775l-8.211-8.137,4.53-4.584,1.128,1.123-3.206,3.249,2.056,2.034,3.2-3.266,1.166,1.162-3.218,3.261,3.866,3.805Z" id="Path_29439"></path>
    <path fill="#005a99" transform="translate(-143.505 -75.758)" d="M184.578,102.7l1.546-1.008,3.894,5.833a3.343,3.343,0,0,0,1.911,1.548,2.793,2.793,0,0,0,2.238-.532,2.835,2.835,0,0,0,1.348-1.842,3.316,3.316,0,0,0-.7-2.362l-3.884-5.845,1.577-1.047,3.977,6a4.756,4.756,0,0,1,.959,3.587,4.938,4.938,0,0,1-2.335,2.935,4.772,4.772,0,0,1-3.607,1.008,4.684,4.684,0,0,1-2.915-2.277Z" id="Path_29440"></path>
    <path fill="#005a99" transform="translate(-193.148 -52.103)" d="M252.469,81.39l-4.04-11.33,9.286,4.19a6.909,6.909,0,0,1,.785.395,8.929,8.929,0,0,1,.874.508l-2.69-7.56,1.629-.577,4.054,11.324-9.478-4.262c-.247-.109-.5-.249-.759-.389s-.5-.285-.739-.449l2.712,7.572Z" id="Path_29441"></path>
    <path fill="#005a99" transform="translate(-252.586 -45.247)" d="M326.054,70.112l-1.176-11.5,2.52-.255a15.362,15.362,0,0,1,3.489-.1,4.466,4.466,0,0,1,1.846.65,4.733,4.733,0,0,1,1.7,1.791,6.8,6.8,0,0,1,.789,2.672A6.569,6.569,0,0,1,335,66.137a4.649,4.649,0,0,1-1.32,2.105,4.4,4.4,0,0,1-1.623,1.01,13.049,13.049,0,0,1-2.975.55l-.5.063Zm1.7-1.87,1.579-.174a7.038,7.038,0,0,0,1.919-.366,2.818,2.818,0,0,0,1.069-.7,3.619,3.619,0,0,0,.85-1.482,5.494,5.494,0,0,0,.111-1.961,5.282,5.282,0,0,0-.524-1.886,3.438,3.438,0,0,0-1.117-1.289,2.772,2.772,0,0,0-1.227-.46,9.064,9.064,0,0,0-2.138.028l-.68.085-.676.055Z" id="Path_29442"></path>
    <path fill="#005a99" transform="translate(-297.965 -43.703)" d="M392.4,68.567l-.961-3.115-4.566-.5L385.2,67.754l-1.959-.229,6.922-11.314,4.206,12.569Zm-4.653-5.1,3.21.364-.888-2.75c-.038-.186-.1-.383-.152-.6s-.085-.462-.126-.751c-.1.241-.182.468-.279.684-.1.19-.186.395-.3.555Z" id="Path_29443"></path>
    <path fill="#005a99" transform="translate(-350.334 -56.365)" d="M461.206,76.991a6.053,6.053,0,0,0-1.271-1.522,5.393,5.393,0,0,0-1.66-.935,4.124,4.124,0,0,0-3.3.138,4.788,4.788,0,0,0-2.079,5.9,3.837,3.837,0,0,0,2.352,2.095,5.327,5.327,0,0,0,1.973.3,6.158,6.158,0,0,0,2.04-.453l-.682,2a5.761,5.761,0,0,1-1.834.225,7.048,7.048,0,0,1-1.929-.364,7.176,7.176,0,0,1-2.16-1.217,5.732,5.732,0,0,1-2.048-4.145,6.58,6.58,0,0,1,1.571-4.511,6.037,6.037,0,0,1,4.169-2,6.824,6.824,0,0,1,2.425.368,6.727,6.727,0,0,1,1.738.929,6.45,6.45,0,0,1,1.395,1.429Zm-9.2,9.357.271-.789c.366.225.692.421.974.565s.516.255.731.34a.958.958,0,0,0,.615.057.392.392,0,0,0,.312-.312.4.4,0,0,0-.091-.5,1.551,1.551,0,0,0-.692-.4c-.047,0-.087-.03-.16-.03-.065-.028-.121-.042-.154-.055l.478-1.372.619.219-.2.644.109.043a2.214,2.214,0,0,1,1.152.761,1.252,1.252,0,0,1,.073,1.117,1.176,1.176,0,0,1-.793.8,2.459,2.459,0,0,1-1.437-.124,8.182,8.182,0,0,1-.818-.364,10.686,10.686,0,0,1-.988-.6" id="Path_29444"></path>
    <path fill="#005a99" transform="translate(-385.687 -69.596)" d="M503.918,104.369l.439-3.236-3.9-2.4-2.716,1.817-1.67-1.028,11.094-7.286L505.594,105.4Zm-2.05-6.6,2.75,1.682.365-2.86c.032-.186.091-.383.138-.6s.121-.466.186-.753a3.461,3.461,0,0,1-.542.506c-.178.146-.346.283-.492.393Zm8.644-6.564a2.429,2.429,0,0,1-1.093.735,1.292,1.292,0,0,1-1.073-.146c-.057-.041-.113-.079-.176-.115a1.053,1.053,0,0,0-.164-.144l-.688-.725a.792.792,0,0,1-.15-.144c-.036-.018-.069-.055-.093-.055a.609.609,0,0,0-.435-.127,1.089,1.089,0,0,0-.427.213l-.607-.367a2.741,2.741,0,0,1,1.134-.763,1.2,1.2,0,0,1,1.008.144c.061.057.144.085.2.146s.107.115.168.166l.66.709a.607.607,0,0,1,.1.079c.055.03.119.073.2.13a.583.583,0,0,0,.421.1.862.862,0,0,0,.407-.194Z" id="Path_29445"></path>
    <path fill="#005a99" transform="translate(-433.777 -109.961)" d="M568.39,151.956a5.62,5.62,0,0,1-1.971,1.316,6.063,6.063,0,0,1-2.348.421,6.172,6.172,0,0,1-2.346-.506,6.1,6.1,0,0,1-3.321-3.374,5.929,5.929,0,0,1-.474-2.338,5.794,5.794,0,0,1,.437-2.34,6.116,6.116,0,0,1,1.336-1.973,6.412,6.412,0,0,1,1.975-1.312,6.007,6.007,0,0,1,2.352-.417,6.268,6.268,0,0,1,2.344.486,6.7,6.7,0,0,1,1.991,1.383,6.192,6.192,0,0,1,1.834,4.342,6.305,6.305,0,0,1-.465,2.344,5.6,5.6,0,0,1-1.344,1.969m-1.37-1.378a4.5,4.5,0,0,0,.957-1.4,4.081,4.081,0,0,0,.356-1.639,4.241,4.241,0,0,0-.281-1.64,4.109,4.109,0,0,0-.921-1.378,4.155,4.155,0,0,0-3-1.245,4.065,4.065,0,0,0-1.627.342,4.319,4.319,0,0,0-1.413.964,4.3,4.3,0,0,0-1.016,4.647,3.8,3.8,0,0,0,.919,1.383,3.688,3.688,0,0,0,1.366.913,3.932,3.932,0,0,0,1.621.314,4.364,4.364,0,0,0,1.646-.326,4.422,4.422,0,0,0,1.4-.929" id="Path_29446"></path>
    <path fill-rule="evenodd" fill="#005a99" transform="translate(-301.557 -236.801)" d="M387.865,304.576v59.272a31.935,31.935,0,0,0,12.97-3.716l.085-18.447H417.84a34.486,34.486,0,0,0-.421-12.016H400.891v-3.455H416.4c-5.187-13.32-15.131-20.709-28.538-21.638" id="Path_29447"></path>
    <path fill-rule="evenodd" fill="#005a99" transform="translate(-180.42 -236.108)" d="M264.016,303.685l-.028,59.446a31.768,31.768,0,0,1-12.969-3.012l-.03-34.749h-3.661l-.057,15.708-14.84.055c-2.959-19.216,12.1-37.28,31.586-37.448" id="Path_29448"></path>
    <path fill-rule="evenodd" fill="#005a99" transform="translate(-250.584 -137.24)" d="M334.714,176.519A12.411,12.411,0,1,1,322.3,188.912a12.407,12.407,0,0,1,12.411-12.393" id="Path_29449"></path>
    <path fill="#005a99" transform="translate(-120.409 -453.76)" d="M154.871,591.791l12.455-8.161,3.805,2.951-4.8,14.081-3.02-2.338.992-2.429-4.3-3.328-2.129,1.536Zm7.456-.887,3.016,2.344,1.716-4.542c.061-.14.15-.365.283-.65.117-.292.292-.674.5-1.142-.269.225-.548.437-.8.632a9.134,9.134,0,0,1-.753.571Z" id="Path_29450"></path>
    <path fill="#005a99" transform="translate(-175.922 -479.852)" d="M229.017,625.218a6.817,6.817,0,0,0,.955,2,3.2,3.2,0,0,0,1.336,1.1,1.96,1.96,0,0,0,1.323.128,1.457,1.457,0,0,0,.9-1.931,5.167,5.167,0,0,0-1.457-1.482,6.243,6.243,0,0,1-2.1-2.5,3.375,3.375,0,0,1,.166-2.58,4.382,4.382,0,0,1,2.544-2.508,4.92,4.92,0,0,1,3.716.231,7.787,7.787,0,0,1,1.917,1.148,7.446,7.446,0,0,1,1.437,1.664l-2.206,2.058a4.934,4.934,0,0,0-.893-1.311,3.578,3.578,0,0,0-1.131-.8,1.893,1.893,0,0,0-1.174-.146,1.091,1.091,0,0,0-.708,1.549,3.694,3.694,0,0,0,1.095,1.129l.144.115a7.191,7.191,0,0,1,2.283,2.5,3.364,3.364,0,0,1,.2,1.445,5.164,5.164,0,0,1-.4,1.585,4.7,4.7,0,0,1-2.757,2.714,5.6,5.6,0,0,1-4.149-.316,6.6,6.6,0,0,1-2.255-1.5,7.585,7.585,0,0,1-1.526-2.368Z" id="Path_29451"></path>
    <path fill="#005a99" transform="translate(-224.794 -493.292)" d="M291.364,643.582a6.189,6.189,0,0,0,1.374,1.712,3.271,3.271,0,0,0,1.554.8,2.056,2.056,0,0,0,1.314-.158,1.376,1.376,0,0,0,.676-.947,1.4,1.4,0,0,0-.229-1.16,5.883,5.883,0,0,0-1.761-1.124,6.394,6.394,0,0,1-2.592-1.955,3.311,3.311,0,0,1-.393-2.556,4.271,4.271,0,0,1,1.927-2.987,4.9,4.9,0,0,1,3.671-.619,7.723,7.723,0,0,1,2.113.7,7.563,7.563,0,0,1,1.765,1.3l-1.694,2.5a4.572,4.572,0,0,0-1.166-1.075,3.442,3.442,0,0,0-1.265-.528,1.975,1.975,0,0,0-1.188.122,1.066,1.066,0,0,0-.559.765.987.987,0,0,0,.212.9,3.88,3.88,0,0,0,1.32.844l.166.085a7.373,7.373,0,0,1,2.789,1.949,3.555,3.555,0,0,1,.506,1.354,5.007,5.007,0,0,1-.033,1.633,4.721,4.721,0,0,1-2.109,3.267,5.672,5.672,0,0,1-4.114.625,6.806,6.806,0,0,1-4.518-2.963Z" id="Path_29452"></path>
    <path fill="#005a99" transform="translate(-279.564 -498.204)" d="M359.859,655l-.281-14.05,8.622-.158.053,3.073-4.862.079.028,2.459,4.611-.091.057,3.012-4.619.1.053,2.368,4.882-.085.065,3.127Z" id="Path_29453"></path>
    <path fill="#005a99" transform="translate(-324.101 -491.394)" d="M419.491,647.465l-2.629-13.826,8.464-1.6.6,3.018-4.809.935.466,2.38,4.513-.85.559,2.951-4.5.874,1.022,5.41Z" id="Path_29454"></path>
    <path fill="#005a99" transform="translate(-372.301 -477.817)" d="M480.165,631.35l-1.308-14.821,4.378-1.955,10.177,10.863-3.473,1.543-1.676-2-4.989,2.228.376,2.605Zm2.753-6.995,3.493-1.548-3.212-3.655c-.083-.115-.241-.3-.439-.547s-.461-.583-.769-.984c.079.346.129.686.2,1.008.026.316.093.62.136.917Z" id="Path_29455"></path>
    <path fill="#005a99" transform="translate(-407.377 -440.903)" d="M541.4,578.5l-9.618,7.863-1.494-13.024-4.408,3.613-1.911-2.375,9.167-7.487L534.6,580.1l4.876-3.965Z" id="Path_29456"></path>
    <path fill="#005a9a" transform="translate(-16.3 -16.315)" d="M100.3,179.647A79.332,79.332,0,1,1,179.637,100.3,79.444,79.444,0,0,1,100.3,179.647m0-156.945a77.6,77.6,0,1,0,77.6,77.6,77.687,77.687,0,0,0-77.6-77.6" id="Path_29457"></path>
    <path fill="#005a9a" transform="translate(-107.645 -107.623)" d="M191.65,244.816a53.2,53.2,0,1,1,53.206-53.206,53.26,53.26,0,0,1-53.206,53.206m0-104.67A51.47,51.47,0,1,0,243.1,191.61a51.529,51.529,0,0,0-51.447-51.464" id="Path_29458"></path>
  </g>
</svg>
