<svg width="255" height="43" viewBox="0 0 255 43" fill="none" xmlns="http://www.w3.org/2000/svg">
<g clip-path="url(#clip0)">
<path d="M54.9406 27.1741C55.6255 27.3554 56.3726 27.5276 57.1909 27.6635C58.0429 27.8117 58.9059 27.8845 59.7702 27.8811C60.5445 27.912 61.3181 27.8046 62.0561 27.5638C62.3287 27.4526 62.5716 27.2772 62.7648 27.0519C62.9581 26.8266 63.0962 26.5579 63.1679 26.2677C63.232 26.0734 63.2767 25.8729 63.3013 25.6694C63.3205 25.4344 63.2839 25.1981 63.1946 24.9806C63.088 24.7394 62.9336 24.5234 62.7409 24.3461C62.4849 24.1038 62.2081 23.8854 61.9138 23.6935C61.5758 23.4669 61.1667 23.2222 60.6953 22.9593C60.2239 22.6964 59.8058 22.4064 59.3078 22.1073C58.8316 21.8096 58.4002 21.4432 58.027 21.0196C57.6201 20.5519 57.316 20.0011 57.135 19.4039C56.954 18.8068 56.9003 18.1771 56.9774 17.5571C57.0366 16.9816 57.1528 16.4137 57.3243 15.8621C57.7481 14.3353 58.7365 13.0356 60.0816 12.2365C61.6229 11.3508 63.3739 10.9149 65.1424 10.9766C66.2119 10.965 67.2786 11.0898 68.3177 11.3482C69.1597 11.5618 69.9836 11.8437 70.7814 12.1912L69.7764 15.8168C69.0352 15.6718 68.3058 15.5449 67.5884 15.4361C66.8484 15.3336 66.1026 15.2822 65.3559 15.282C64.551 15.2331 63.7445 15.3439 62.9811 15.6083C62.7565 15.7159 62.5593 15.875 62.405 16.0731C62.2508 16.2713 62.1435 16.503 62.0917 16.7504C62.0599 16.8905 62.0391 17.0329 62.0294 17.1764C61.9946 17.4166 62.0223 17.6619 62.1097 17.8878C62.1971 18.1136 62.3412 18.3122 62.5275 18.4635C63.0876 18.887 63.6828 19.26 64.3064 19.5784C64.7778 19.8412 65.2669 20.1313 65.7739 20.4395C66.2721 20.7504 66.7269 21.1285 67.1259 21.5634C67.528 22.0155 67.8473 22.5374 68.0687 23.1043C68.3105 23.7761 68.3928 24.4967 68.3088 25.2072C68.2574 25.714 68.1592 26.2148 68.0153 26.7027C67.7518 27.6868 67.3049 28.61 66.6989 29.422C66.1757 30.103 65.5371 30.6832 64.8133 31.1351C64.1179 31.5627 63.3574 31.869 62.5631 32.0415C61.7913 32.2101 61.0042 32.2951 60.215 32.2953C59.0616 32.3025 57.9126 32.1501 56.7996 31.8421C55.8524 31.5826 54.9226 31.2617 54.0156 30.8813L54.9406 27.1741Z" fill="#00B2A8"/>
<path d="M78.9997 24.1467C79.0821 23.8506 79.1357 23.547 79.1599 23.2403C79.2133 22.7641 79.1299 22.2823 78.9197 21.8535C78.7971 21.6494 78.6197 21.4854 78.4085 21.381C78.1972 21.2766 77.961 21.2361 77.7279 21.2643C77.3904 21.2583 77.0569 21.3394 76.7584 21.5C76.4681 21.6711 76.2166 21.9028 76.0202 22.1798C75.797 22.4994 75.6147 22.8466 75.4776 23.2131C75.3109 23.6377 75.1742 24.0739 75.0685 24.5183C74.9185 25.0735 74.8144 25.6405 74.7572 26.2133C74.6886 26.7067 74.7596 27.2098 74.9617 27.6635C75.083 27.8603 75.2575 28.0172 75.4642 28.1153C75.6709 28.2134 75.9011 28.2486 76.1269 28.2165C76.4584 28.2313 76.7877 28.155 77.0804 27.9955C77.373 27.836 77.6181 27.5993 77.7901 27.3101C78.2435 26.5405 78.5823 25.7066 78.7952 24.8356L78.9997 24.1467ZM83.5803 31.6699C83.2367 31.806 82.8784 31.9003 82.513 31.9509C82.1535 32.0028 81.791 32.0301 81.4279 32.0324C79.7736 32.0324 78.7596 31.3889 78.4483 30.0837C77.9153 30.7335 77.2665 31.2748 76.536 31.679C75.7804 32.0638 74.9435 32.2537 74.099 32.2319C73.3936 32.2573 72.6923 32.1113 72.0533 31.8058C71.5171 31.5435 71.0596 31.1398 70.728 30.6366C70.3978 30.1075 70.1769 29.5153 70.0787 28.8963C69.9723 28.1946 69.9514 27.4822 70.0165 26.7753C70.1056 25.8137 70.2995 24.8652 70.5946 23.9473C70.8545 23.0726 71.197 22.2257 71.6175 21.4184C72.0276 20.642 72.5425 19.928 73.1473 19.2974C73.6989 18.6962 74.3528 18.2018 75.0774 17.8381C75.8308 17.4763 76.6549 17.2935 77.4877 17.3033C78.1931 17.289 78.8925 17.4377 79.5334 17.7384C80.145 18.0527 80.6455 18.5532 80.9654 19.1705L81.6858 17.6115H85.5193L82.931 26.7481C82.8579 26.9874 82.8073 27.2332 82.7798 27.4823C82.7546 27.6285 82.7686 27.7789 82.8202 27.9177C82.8719 28.0565 82.9593 28.1785 83.0734 28.2709C83.4911 28.4849 83.9601 28.573 84.4253 28.5246L83.5803 31.6699Z" fill="#00B2A8"/>
<path d="M92.9986 16.1703L92.3315 13.6868L98.0506 11.0491C98.4301 10.8666 98.8411 10.7619 99.2602 10.741C99.9984 10.741 100.488 11.1851 100.719 12.0734C100.807 12.3665 100.838 12.6746 100.808 12.9798C100.797 13.1913 100.744 13.3983 100.652 13.5884C100.56 13.7784 100.432 13.9476 100.274 14.0856C99.8818 14.3875 99.4244 14.5895 98.94 14.6748L92.9986 16.1703ZM91.451 25.9233C91.3804 26.2032 91.3299 26.488 91.2998 26.7753C91.264 26.9542 91.2636 27.1386 91.2987 27.3176C91.3338 27.4966 91.4038 27.6666 91.5044 27.8177C91.6134 27.9284 91.7444 28.014 91.8886 28.0687C92.0328 28.1235 92.1869 28.1461 92.3404 28.1349C93.4433 28.1349 94.2438 27.2285 94.7597 25.4157L96.9032 17.6387H101.608L99.1001 26.7753C99.027 27.0146 98.9764 27.2605 98.9489 27.5095C98.9237 27.6557 98.9376 27.8061 98.9893 27.9449C99.0409 28.0837 99.1284 28.2057 99.2424 28.2981C99.6631 28.5129 100.135 28.601 100.603 28.5519L99.7138 31.6971C99.3667 31.8321 99.0057 31.9264 98.6376 31.9781C98.2781 32.03 97.9156 32.0573 97.5525 32.0597C95.9337 32.0597 94.9376 31.4252 94.5729 30.1381C94.0119 30.7895 93.3284 31.3196 92.5628 31.6971C91.7698 32.0756 90.9035 32.2677 90.0279 32.2591C89.4953 32.2992 88.9605 32.2184 88.4622 32.0224C87.9638 31.8265 87.5144 31.5204 87.1461 31.1261C86.8023 30.6751 86.5544 30.1561 86.4181 29.6021C86.2818 29.0481 86.2602 28.4713 86.3546 27.9083C86.3768 27.6218 86.4184 27.3371 86.4791 27.0563C86.5413 26.7572 86.6214 26.449 86.7014 26.1499L89.0406 17.6659H93.7368L91.451 25.9233Z" fill="#00B2A8"/>
<path d="M111.393 24.1468C111.475 23.8507 111.529 23.5471 111.553 23.2404C111.613 22.7649 111.533 22.2819 111.322 21.8536C111.199 21.6495 111.022 21.4855 110.81 21.381C110.599 21.2766 110.363 21.2361 110.13 21.2644C109.79 21.2595 109.454 21.3405 109.151 21.5C108.864 21.6713 108.615 21.9031 108.422 22.1798C108.196 22.499 108.011 22.8462 107.871 23.2132C107.711 23.6394 107.577 24.0753 107.47 24.5184C107.321 25.0735 107.216 25.6405 107.159 26.2134C107.091 26.7068 107.162 27.2099 107.364 27.6636C107.485 27.8604 107.659 28.0173 107.866 28.1154C108.073 28.2135 108.303 28.2486 108.529 28.2165C108.86 28.2313 109.19 28.155 109.482 27.9955C109.775 27.8361 110.02 27.5993 110.192 27.3101C110.646 26.5418 110.982 25.7073 111.188 24.8356L111.393 24.1468ZM115.956 31.6699C115.609 31.8061 115.248 31.9004 114.879 31.9509C114.523 32.0028 114.163 32.03 113.803 32.0325C113.114 32.0671 112.429 31.9004 111.829 31.5521C111.575 31.3924 111.356 31.1826 111.183 30.9351C111.011 30.6876 110.888 30.4073 110.824 30.1109C110.282 30.7481 109.631 31.2795 108.902 31.679C108.156 32.0641 107.328 32.2541 106.492 32.2319C105.798 32.2516 105.108 32.1122 104.473 31.824C103.941 31.5716 103.486 31.1769 103.157 30.682C102.816 30.1554 102.586 29.5629 102.481 28.9416C102.351 28.2183 102.321 27.48 102.392 26.7482C102.486 25.7961 102.679 24.8572 102.97 23.9474C103.242 23.0442 103.606 22.1723 104.055 21.3459C104.462 20.5755 104.974 19.8676 105.576 19.2431C106.126 18.6642 106.77 18.186 107.479 17.8291C108.178 17.4754 108.949 17.2952 109.73 17.3034C110.323 17.2706 110.915 17.3846 111.455 17.6356C111.996 17.8865 112.469 18.267 112.834 18.7446L114.897 11.2758H119.585L115.306 26.7482C115.236 26.9876 115.188 27.2335 115.164 27.4823C115.135 27.6278 115.146 27.7786 115.196 27.9179C115.246 28.0572 115.334 28.1795 115.449 28.2709C115.87 28.4848 116.341 28.5728 116.809 28.5247L115.956 31.6699Z" fill="#00B2A8"/>
<path d="M123.613 23.5757C123.836 23.6181 124.063 23.6393 124.289 23.6392H124.885C125.492 23.688 126.101 23.5917 126.664 23.3581C126.951 23.2026 127.189 22.9668 127.349 22.6783C127.405 22.5488 127.453 22.4155 127.491 22.2795C127.518 22.1694 127.536 22.0572 127.545 21.9442C127.568 21.7978 127.56 21.648 127.52 21.5054C127.48 21.3628 127.409 21.2309 127.313 21.1193C127.179 21.0009 127.022 20.9124 126.852 20.8594C126.682 20.8063 126.503 20.7899 126.326 20.8111C125.778 20.8146 125.25 21.0208 124.841 21.3913C124.255 21.9946 123.843 22.7502 123.649 23.5757H123.613ZM128.55 31.3255C127.937 31.633 127.289 31.8585 126.62 31.9962C125.858 32.1526 125.084 32.2316 124.307 32.2319C122.297 32.2319 120.815 31.7243 119.86 30.7091C119.374 30.1187 119.019 29.4283 118.82 28.6852C118.62 27.9421 118.581 27.1639 118.704 26.4037C118.765 25.7646 118.875 25.1312 119.033 24.5093C119.468 22.4693 120.508 20.615 122.012 19.1977C123.457 17.9255 125.316 17.2498 127.224 17.3033C127.846 17.2441 128.474 17.3105 129.07 17.4987C129.667 17.6869 130.222 17.9932 130.702 18.4001C131.055 18.7769 131.318 19.2309 131.472 19.7273C131.626 20.2237 131.667 20.7494 131.592 21.2643C131.592 21.4094 131.592 21.5544 131.592 21.6994C131.58 21.8486 131.547 21.9952 131.494 22.1345C130.806 24.9444 128.606 26.3493 124.894 26.3493C124.301 26.3493 123.708 26.3221 123.115 26.2677C123.074 26.5925 123.101 26.9227 123.197 27.2355C123.292 27.5484 123.452 27.8367 123.667 28.0806C124.367 28.5339 125.198 28.732 126.024 28.6425C126.504 28.6425 127.02 28.6153 127.571 28.5609C128.132 28.4975 128.745 28.4069 129.421 28.28L128.55 31.3255Z" fill="#00B2A8"/>
<path d="M143.945 21.4003H147.29C148.35 21.4477 149.399 21.163 150.296 20.5845C151.166 19.8906 151.773 18.9102 152.013 17.8109C152.075 17.5843 152.128 17.3668 152.173 17.1492C152.217 16.9398 152.25 16.7279 152.271 16.5147C152.337 16.1053 152.311 15.6857 152.194 15.2882C152.076 14.8907 151.872 14.5258 151.595 14.2215C151.225 13.9115 150.799 13.6791 150.341 13.5375C149.883 13.3959 149.402 13.3481 148.926 13.3967H146.133L143.945 21.4003ZM138.404 31.8058L144.097 11.1669H149.753C150.492 11.1015 151.235 11.1935 151.936 11.4369C152.638 11.6804 153.282 12.07 153.827 12.5809C154.273 13.0908 154.603 13.6948 154.794 14.3497C154.985 15.0046 155.031 15.6944 154.93 16.3697C154.912 16.6108 154.877 16.8502 154.823 17.0858C154.779 17.3305 154.725 17.5752 154.663 17.8381C154.434 18.8132 154.026 19.7357 153.462 20.5573C152.97 21.2716 152.352 21.8864 151.639 22.3701C150.943 22.8245 150.176 23.1555 149.371 23.349C148.543 23.5494 147.696 23.6498 146.845 23.6482H143.287L141.028 31.8058H138.404Z" fill="#00B2A8"/>
<path d="M157.643 23.9474L158.915 24.0471C159.315 24.0471 159.679 24.0924 160.035 24.0924C160.988 24.1522 161.94 23.9749 162.81 23.5757C163.414 23.2325 163.869 22.6691 164.082 21.9986C164.082 21.8626 164.162 21.7357 164.198 21.6179C164.223 21.5013 164.241 21.3832 164.251 21.2644C164.285 21.0217 164.266 20.7743 164.193 20.5405C164.121 20.3067 163.998 20.0925 163.833 19.9138C163.353 19.5179 162.739 19.3321 162.125 19.3972C161.562 19.379 161.002 19.4929 160.488 19.7302C159.975 19.9675 159.521 20.3219 159.164 20.7659C158.805 21.2103 158.506 21.701 158.274 22.2252C158.019 22.7803 157.811 23.3565 157.652 23.9474H157.643ZM163.353 31.3527C162.816 31.6175 162.248 31.8124 161.663 31.9328C160.988 32.0825 160.299 32.1555 159.608 32.1503C158.785 32.171 157.964 32.0358 157.189 31.7515C156.58 31.5209 156.037 31.1411 155.606 30.6457C155.196 30.1551 154.909 29.5703 154.77 28.9416C154.617 28.2122 154.578 27.4628 154.654 26.721C154.687 26.322 154.743 25.9255 154.823 25.5336C154.907 25.1019 155.014 24.6753 155.143 24.2555C155.401 23.3137 155.756 22.4022 156.202 21.5363C156.621 20.7349 157.151 19.9992 157.776 19.3519C158.369 18.7345 159.072 18.2391 159.848 17.8925C160.69 17.5237 161.601 17.3444 162.517 17.3668C163.627 17.3065 164.723 17.6466 165.612 18.3276C165.986 18.6604 166.272 19.0841 166.443 19.5594C166.614 20.0347 166.665 20.5463 166.59 21.0468C166.557 21.4005 166.489 21.7498 166.386 22.0892C166.092 23.2868 165.352 24.3206 164.322 24.9716C162.973 25.6678 161.464 25.9809 159.955 25.878C159.064 25.8716 158.173 25.8172 157.287 25.7148C157.259 25.8526 157.238 25.9918 157.225 26.1318C157.225 26.2678 157.225 26.4037 157.225 26.5306C157.082 27.4396 157.292 28.3697 157.812 29.1229C158.301 29.7484 159.244 30.0294 160.64 30.0294C161.194 30.0306 161.748 29.9851 162.294 29.8934C162.828 29.7937 163.379 29.6849 163.94 29.549L163.353 31.3527Z" fill="#00B2A8"/>
<path d="M174.453 31.7243C174.074 31.8476 173.688 31.9475 173.297 32.0234C172.836 32.1072 172.369 32.1497 171.9 32.1503C171.418 32.1952 170.932 32.1378 170.473 31.9818C170.014 31.8258 169.591 31.5746 169.232 31.2439C168.941 30.9001 168.728 30.4953 168.609 30.0582C168.489 29.6212 168.465 29.1625 168.538 28.715C168.559 28.5017 168.591 28.2898 168.636 28.0805C168.681 27.863 168.734 27.6364 168.796 27.3916L170.895 19.7506H168.44L168.85 18.255L171.456 17.7746L172.665 13.4148H175.2L173.999 17.7202H177.922L177.353 19.7506H173.439L171.411 27.1378C171.358 27.3372 171.304 27.5366 171.26 27.727C171.219 27.9032 171.19 28.0818 171.171 28.2618C171.131 28.5038 171.147 28.7521 171.218 28.9867C171.289 29.2213 171.413 29.4356 171.58 29.6123C172.106 29.9622 172.735 30.1159 173.359 30.0474H174.062C174.328 30.0474 174.622 30.0021 174.951 29.9567L174.453 31.7243Z" fill="#00B2A8"/>
<path d="M177.121 31.8058L181.026 17.7293H183.071L182.573 20.3035C183.11 19.4671 183.825 18.764 184.663 18.2459C185.487 17.738 186.432 17.4714 187.394 17.4755C187.692 17.4722 187.99 17.4995 188.283 17.5571L187.679 19.7324C187.587 19.7235 187.495 19.7235 187.403 19.7324H187.127C186.47 19.7195 185.819 19.8493 185.215 20.1131C184.633 20.3832 184.105 20.7613 183.658 21.228C183.173 21.7317 182.76 22.3023 182.431 22.923C182.074 23.5933 181.791 24.3015 181.586 25.0349L179.692 31.8149L177.121 31.8058Z" fill="#00B2A8"/>
<path d="M191.059 28.9507C191.265 29.2698 191.555 29.524 191.895 29.6848C192.331 29.8939 192.81 29.9933 193.291 29.9749C193.791 29.9922 194.289 29.8982 194.75 29.6994C195.211 29.5006 195.624 29.2018 195.96 28.8237C196.774 27.7821 197.356 26.573 197.667 25.2797C197.774 24.899 197.872 24.5093 197.961 24.1195C198.048 23.7378 198.108 23.35 198.139 22.9593C198.188 22.5317 198.188 22.0998 198.139 21.6722C198.086 21.2896 197.956 20.9223 197.756 20.5936C197.554 20.2721 197.267 20.0146 196.929 19.8503C196.493 19.6423 196.014 19.5429 195.533 19.5603C195.033 19.5442 194.535 19.6387 194.075 19.8375C193.614 20.0362 193.201 20.3344 192.864 20.7114C192.067 21.7585 191.497 22.9666 191.192 24.2555C191.085 24.6362 190.988 25.0259 190.899 25.4157C190.813 25.798 190.75 26.1855 190.712 26.5759C190.667 27.0037 190.667 27.4351 190.712 27.863C190.759 28.2486 190.886 28.6195 191.085 28.9507H191.059ZM190.454 31.7243C189.873 31.4512 189.366 31.0373 188.977 30.5188C188.598 30.0048 188.348 29.4043 188.248 28.7694C188.129 28.0538 188.105 27.3252 188.177 26.6031C188.261 25.6646 188.443 24.7379 188.72 23.8385C189.194 22.0534 190.113 20.4236 191.388 19.1071C192.008 18.5235 192.734 18.0708 193.527 17.7752C194.319 17.4796 195.161 17.3469 196.004 17.3849C196.824 17.3567 197.639 17.5082 198.397 17.829C198.993 18.084 199.515 18.4933 199.909 19.0164C200.284 19.5339 200.536 20.1325 200.647 20.7658C200.776 21.48 200.806 22.2093 200.736 22.9321C200.697 23.3869 200.625 23.8383 200.522 24.2827C200.416 24.754 200.3 25.1891 200.167 25.6967C199.698 27.495 198.779 29.1382 197.498 30.4644C196.248 31.6175 194.603 32.223 192.918 32.1503C192.091 32.1755 191.269 32.0306 190.498 31.7243" fill="#00B2A8"/>
<path d="M206.26 25.5517C206.206 25.7783 206.153 26.0049 206.108 26.2224C206.064 26.4379 206.031 26.6558 206.01 26.875C205.909 27.6498 206.079 28.4363 206.491 29.0957C206.742 29.4211 207.071 29.6752 207.447 29.8339C207.822 29.9926 208.231 30.0505 208.634 30.0021C209.122 30.0226 209.607 29.9342 210.057 29.7432C210.508 29.5521 210.911 29.2631 211.24 28.8963C211.983 27.9953 212.55 26.9587 212.913 25.8417C213.097 25.3373 213.255 24.8229 213.384 24.3008C213.491 23.8504 213.568 23.3931 213.615 22.9321C213.736 22.0927 213.583 21.236 213.179 20.4939C212.942 20.1739 212.627 19.9221 212.265 19.7632C211.903 19.6044 211.507 19.5438 211.116 19.5875C210.572 19.5751 210.032 19.6875 209.536 19.9166C209.04 20.1457 208.601 20.4855 208.252 20.9109C207.392 21.9874 206.784 23.2488 206.473 24.5999L206.26 25.5517ZM201.99 31.8512L203.289 27.1741C203.653 25.887 203.974 24.7359 204.258 23.7207C204.543 22.7056 204.792 21.7901 205.023 20.9562C205.254 20.1223 205.495 19.234 205.753 18.3185L206.642 15.273C206.953 14.1491 207.318 12.7985 207.754 11.2123H210.289L208.038 19.3246C208.558 18.7792 209.158 18.3204 209.817 17.965C210.534 17.5965 211.328 17.4129 212.13 17.4303C212.849 17.4094 213.564 17.555 214.22 17.8563C214.751 18.1095 215.206 18.504 215.536 18.9983C215.867 19.5063 216.086 20.0816 216.177 20.6843C216.291 21.3668 216.315 22.0618 216.248 22.7509C216.195 23.3379 216.097 23.9198 215.954 24.4912C215.808 25.1057 215.627 25.711 215.412 26.304C215.116 27.1341 214.74 27.9326 214.291 28.6878C213.889 29.3816 213.389 30.0108 212.806 30.555C212.26 31.0671 211.631 31.4782 210.947 31.7696C210.241 32.0731 209.481 32.2244 208.714 32.2138C208.199 32.2218 207.685 32.1453 207.193 31.9872C206.8 31.8571 206.43 31.661 206.099 31.4071C205.809 31.1844 205.559 30.9114 205.361 30.6004C205.188 30.3142 205.045 30.0104 204.934 29.694L204.107 31.8965L201.99 31.8512Z" fill="#00B2A8"/>
<path d="M217.412 31.8059L221.317 17.7293H223.362L222.864 20.3035C223.402 19.4648 224.12 18.7613 224.963 18.246C225.786 17.7367 226.731 17.47 227.694 17.4755C227.992 17.4719 228.29 17.4992 228.583 17.5571L227.979 19.7325C227.887 19.7231 227.795 19.7231 227.703 19.7325H227.427C226.769 19.7261 226.117 19.862 225.515 20.1313C224.933 20.4014 224.405 20.7795 223.958 21.2462C223.476 21.7522 223.063 22.3224 222.731 22.9412C222.359 23.6096 222.061 24.3179 221.841 25.0531L219.956 31.833L217.412 31.8059Z" fill="#00B2A8"/>
<path d="M238.207 24.0289C238.267 23.8053 238.32 23.5787 238.367 23.3491C238.412 23.1367 238.445 22.9218 238.465 22.7055C238.562 21.9309 238.393 21.146 237.985 20.4848C237.734 20.1595 237.405 19.9053 237.029 19.7466C236.654 19.5879 236.245 19.53 235.841 19.5784C235.354 19.5579 234.868 19.6463 234.418 19.8374C233.968 20.0284 233.564 20.3174 233.235 20.6842C232.49 21.583 231.922 22.6203 231.563 23.7388C231.379 24.2433 231.221 24.7577 231.092 25.2797C230.985 25.7301 230.907 26.1874 230.861 26.6484C230.74 27.4878 230.893 28.3445 231.296 29.0866C231.534 29.4067 231.849 29.6584 232.211 29.8173C232.572 29.9762 232.968 30.0367 233.36 29.993C233.904 30.0042 234.443 29.8911 234.939 29.6621C235.435 29.4331 235.874 29.094 236.224 28.6697C237.083 27.5931 237.692 26.3317 238.003 24.9806L238.207 24.0289ZM240.715 31.6971C240.499 31.7537 240.279 31.7991 240.057 31.833C239.823 31.8766 239.584 31.8978 239.346 31.8965C239.026 31.9242 238.705 31.8873 238.399 31.7877C238.094 31.6881 237.811 31.5279 237.567 31.3164C237.365 31.0965 237.214 30.8335 237.125 30.5465C237.036 30.2595 237.01 29.9558 237.051 29.6576C236.514 30.373 235.858 30.9866 235.112 31.4705C234.292 31.9727 233.347 32.2244 232.39 32.1956C231.671 32.2174 230.956 32.0717 230.3 31.7696C229.769 31.5164 229.314 31.1218 228.984 30.6275C228.653 30.1195 228.435 29.5442 228.343 28.9416C228.229 28.259 228.205 27.564 228.272 26.875C228.325 26.288 228.424 25.7061 228.566 25.1347C228.712 24.5201 228.893 23.9148 229.108 23.3219C229.403 22.4957 229.776 21.7005 230.22 20.9471C230.635 20.2601 231.138 19.6322 231.714 19.0799C232.258 18.5632 232.888 18.1489 233.573 17.8562C234.279 17.5527 235.04 17.4015 235.806 17.4121C236.321 17.4041 236.835 17.4806 237.327 17.6387C237.719 17.7726 238.088 17.9684 238.421 18.2188C238.716 18.4412 238.964 18.7217 239.15 19.0436C239.325 19.3299 239.471 19.6336 239.586 19.95L240.413 17.7475H242.45L239.47 28.4431C239.405 28.6653 239.357 28.8927 239.328 29.1229C239.328 29.5942 239.417 29.8933 239.71 30.0293C240.151 30.1821 240.615 30.2557 241.08 30.2468L240.715 31.6971Z" fill="#00B2A8"/>
<path d="M243.615 29.4583C244.863 29.8652 246.165 30.0761 247.475 30.0837C248.114 30.0962 248.749 29.9919 249.352 29.7755C249.636 29.6614 249.892 29.4854 250.103 29.26C250.313 29.0346 250.473 28.7651 250.57 28.4703C250.64 28.29 250.685 28.101 250.704 27.9083C250.75 27.5894 250.673 27.2647 250.49 27.0019C250.305 26.7395 250.073 26.515 249.806 26.3402C249.507 26.1319 249.192 25.95 248.863 25.7964C248.516 25.6423 248.187 25.4701 247.867 25.3069C247.52 25.1179 247.185 24.9091 246.861 24.6815C246.554 24.4664 246.276 24.2103 246.034 23.9201C245.792 23.6331 245.608 23.3005 245.492 22.9412C245.367 22.5466 245.325 22.1298 245.367 21.7175C245.382 21.5442 245.406 21.3718 245.438 21.2009C245.481 21.0106 245.535 20.823 245.599 20.6389C245.929 19.6775 246.552 18.8487 247.377 18.2732C248.474 17.6084 249.741 17.2928 251.015 17.3668C251.757 17.3569 252.498 17.4391 253.221 17.6115C253.83 17.7603 254.426 17.9636 255 18.2188L254.493 19.9138C253.95 19.7597 253.417 19.6419 252.865 19.5422C252.259 19.4468 251.646 19.4013 251.033 19.4062C250.396 19.3947 249.763 19.4897 249.156 19.6872C248.876 19.7907 248.623 19.9592 248.418 20.1794C248.213 20.3997 248.06 20.6656 247.973 20.9561C247.906 21.1307 247.861 21.3136 247.84 21.5C247.816 21.7295 247.854 21.9613 247.949 22.1705C248.045 22.3798 248.195 22.5585 248.382 22.6874C248.972 23.0871 249.594 23.4357 250.241 23.7298C250.606 23.9201 250.988 24.1195 251.371 24.3371C251.744 24.5461 252.085 24.8086 252.385 25.1166C252.669 25.4204 252.898 25.7733 253.061 26.1589C253.235 26.5982 253.3 27.0748 253.248 27.5458C253.217 27.8337 253.163 28.1186 253.088 28.3978C252.949 28.9834 252.698 29.5352 252.349 30.0207C251.999 30.5063 251.558 30.916 251.051 31.2258C249.965 31.846 248.737 32.1589 247.493 32.1322C246.65 32.1379 245.81 32.0313 244.994 31.8149C244.356 31.6591 243.734 31.4436 243.135 31.1714L243.615 29.4583Z" fill="#00B2A8"/>
<path d="M14.5 11.5H14L8 31L9.5 32.5H28.5L31 31L35.5 12.5L36 11.5L34 10L15 11L14.5 11.5Z" fill="#3DA480"/>
<path d="M8.75244 31.8059C7.24041 39.7098 10.6825 42.42 16.0013 42.9547C22.6365 43.3717 27.1726 40.8428 29.8053 31.8059H8.75244Z" fill="#C4D600"/>
<path d="M8.75151 31.8058C0.880039 31.0897 -0.720934 26.9656 0.248546 21.6178C1.70721 15.001 5.34499 11.2666 14.5951 11.1941C14.5951 11.1941 9.21401 30.1561 8.75151 31.8058Z" fill="#C4D600"/>
<path d="M35.6574 11.1941C37.1606 3.29023 33.7185 0.580051 28.4086 0.0452698C21.7645 -0.371678 17.2373 2.15722 14.5957 11.1941H35.6574Z" fill="#00B2A8"/>
<path d="M35.6572 11.1941C43.5197 11.9102 45.1207 16.0343 44.1512 21.3821C42.7014 27.9989 39.0548 31.7333 29.8047 31.8058C29.8047 31.8058 35.1858 12.8438 35.6572 11.1941Z" fill="#00B2A8"/>
</g>
<defs>
<clipPath id="clip0">
<rect width="255" height="43" fill="white"/>
</clipPath>
</defs>
</svg>
