<svg version="1.1" id="Layer_1" xmlns="http://www.w3.org/2000/svg" xmlns:xlink="http://www.w3.org/1999/xlink" x="0px" y="0px"
	 width="100%" viewBox="0 0 1140 420" enable-background="new 0 0 1140 420" xml:space="preserve">
<path fill="#F9FCFB" opacity="1.000000" stroke="none" 
	d="
M1141.000000,71.999985 
	C1141.000000,188.298996 1141.000000,304.597992 1141.000000,421.000000 
	C783.973145,421.000000 426.946289,421.000000 69.757912,420.663879 
	C69.113869,419.902130 68.687263,419.202545 68.140617,419.090912 
	C54.399124,416.284912 42.579662,409.512299 32.164341,400.532745 
	C17.326000,387.739868 7.173270,371.841339 2.915897,352.463043 
	C2.784276,351.863983 1.660970,351.482788 0.999998,351.000000 
	C1.000000,258.306458 1.000000,165.612946 1.336407,72.757919 
	C2.108008,71.946548 2.786800,71.349983 2.942455,70.638916 
	C6.104212,56.195126 12.658569,43.323460 22.325607,32.337257 
	C35.968288,16.832891 52.923851,6.585235 73.531288,2.910203 
	C74.115822,2.805959 74.514603,1.660145 75.000000,1.000000 
	C405.360199,1.000000 735.720398,1.000000 1066.239746,1.347901 
	C1067.058350,2.122620 1067.671997,2.813606 1068.384277,2.937599 
	C1085.553955,5.926746 1100.313354,13.728344 1112.983276,25.511755 
	C1126.235962,37.837162 1134.882080,52.904732 1139.081665,70.533081 
	C1139.226074,71.139954 1140.338623,71.516228 1141.000000,71.999985 
M11.012560,280.500000 
	C11.012592,296.497528 10.942219,312.495422 11.025818,328.492523 
	C11.279837,377.100281 45.785362,411.428864 94.324883,411.428955 
	C437.465454,411.429504 780.606018,411.429321 1123.746582,411.429321 
	C1126.020996,411.429321 1128.295288,411.429291 1130.757080,411.429291 
	C1130.860718,410.086273 1130.977173,409.280548 1130.977173,408.474854 
	C1130.985474,303.482849 1130.909180,198.490753 1131.018799,93.498848 
	C1131.069824,44.638821 1091.348633,10.602434 1047.446533,11.622129 
	C1002.307617,12.670550 957.125427,11.854793 911.962219,11.854793 
	C638.649658,11.854793 365.337128,11.864707 92.024574,11.822611 
	C79.650772,11.820705 67.743454,13.948286 56.766495,19.585329 
	C25.942484,35.414513 11.044874,61.062645 11.023348,95.514000 
	C10.985026,156.842651 11.012568,218.171326 11.012560,280.500000 
z"/>
<path fill="#000000" opacity="1.000000" stroke="none" 
	d="
M74.531342,1.000000 
	C74.514603,1.660145 74.115822,2.805959 73.531288,2.910203 
	C52.923851,6.585235 35.968288,16.832891 22.325607,32.337257 
	C12.658569,43.323460 6.104212,56.195126 2.942455,70.638916 
	C2.786800,71.349983 2.108008,71.946548 1.336407,72.298218 
	C1.000000,48.404953 1.000000,24.809906 1.000000,1.000000 
	C25.353807,1.000000 49.708244,1.000000 74.531342,1.000000 
z"/>
<path fill="#000000" opacity="1.000000" stroke="none" 
	d="
M1141.000000,71.531326 
	C1140.338623,71.516228 1139.226074,71.139954 1139.081665,70.533081 
	C1134.882080,52.904732 1126.235962,37.837162 1112.983276,25.511755 
	C1100.313354,13.728344 1085.553955,5.926746 1068.384277,2.937599 
	C1067.671997,2.813606 1067.058350,2.122620 1066.699463,1.347901 
	C1091.592041,1.000000 1116.183960,1.000000 1141.000000,1.000000 
	C1141.000000,24.353750 1141.000000,47.708218 1141.000000,71.531326 
z"/>
<path fill="#000000" opacity="1.000000" stroke="none" 
	d="
M0.999998,351.468658 
	C1.660970,351.482788 2.784276,351.863983 2.915897,352.463043 
	C7.173270,371.841339 17.326000,387.739868 32.164341,400.532745 
	C42.579662,409.512299 54.399124,416.284912 68.140617,419.090912 
	C68.687263,419.202545 69.113869,419.902130 69.298203,420.663879 
	C46.405422,421.000000 23.810844,421.000000 1.000000,421.000000 
	C1.000000,397.979553 1.000000,374.958435 0.999998,351.468658 
z"/>
<path fill="#18995D" opacity="1.000000" stroke="none" 
	d="
M11.012561,280.000000 
	C11.012568,218.171326 10.985026,156.842651 11.023348,95.514000 
	C11.044874,61.062645 25.942484,35.414513 56.766495,19.585329 
	C67.743454,13.948286 79.650772,11.820705 92.024574,11.822611 
	C365.337128,11.864707 638.649658,11.854793 911.962219,11.854793 
	C957.125427,11.854793 1002.307617,12.670550 1047.446533,11.622129 
	C1091.348633,10.602434 1131.069824,44.638821 1131.018799,93.498848 
	C1130.909180,198.490753 1130.985474,303.482849 1130.977173,408.474854 
	C1130.977173,409.280548 1130.860718,410.086273 1130.757080,411.429291 
	C1128.295288,411.429291 1126.020996,411.429321 1123.746582,411.429321 
	C780.606018,411.429321 437.465454,411.429504 94.324883,411.428955 
	C45.785362,411.428864 11.279837,377.100281 11.025818,328.492523 
	C10.942219,312.495422 11.012592,296.497528 11.012561,280.000000 
M953.275024,180.246689 
	C954.780029,182.238144 956.364807,184.175079 957.772339,186.233185 
	C960.186768,189.763824 959.442017,191.240891 955.068420,191.406586 
	C951.242249,191.551544 947.401733,191.330734 943.577026,191.493713 
	C942.015076,191.560272 940.478027,192.212189 938.929688,192.597824 
	C939.461304,194.223297 939.629211,196.111084 940.582214,197.432632 
	C947.982239,207.693253 955.372803,217.970703 963.173035,227.924149 
	C964.743713,229.928329 968.012634,231.587494 970.557190,231.673721 
	C982.205200,232.068436 993.875122,231.922241 1005.534485,231.768356 
	C1007.339417,231.744537 1010.053162,231.147415 1010.669434,229.951248 
	C1011.291199,228.744629 1010.245483,226.163162 1009.204773,224.700089 
	C1002.837646,215.748856 996.246948,206.956924 989.776428,198.078629 
	C988.676697,196.569717 987.797852,194.899811 986.278320,192.428131 
	C989.100769,192.167633 990.834473,191.881180 992.570007,191.869339 
	C1000.066284,191.818161 1007.567139,191.980789 1015.056946,191.756073 
	C1016.995117,191.697906 1018.899597,190.517212 1020.819580,189.852127 
	C1020.189697,188.060532 1019.956604,185.971863 1018.870789,184.521713 
	C1001.508484,161.334198 984.102173,138.178467 966.472046,115.194862 
	C965.006470,113.284271 961.876160,111.638084 959.493774,111.603004 
	C940.006775,111.316078 920.512085,111.320618 901.024780,111.595207 
	C898.616394,111.629143 895.385193,113.133720 893.974976,115.028435 
	C876.781738,138.128448 859.830322,161.409027 842.931396,184.726257 
	C841.886108,186.168411 840.876587,188.837799 841.527710,189.980316 
	C842.220459,191.195816 844.899658,191.723969 846.730591,191.768585 
	C854.389282,191.955109 862.055481,191.806549 869.718018,191.878983 
	C871.426331,191.895126 873.130920,192.308823 875.752808,192.663239 
	C874.276123,194.957626 873.394287,196.492615 872.356323,197.913589 
	C865.876221,206.785187 859.298340,215.586411 852.920105,224.530273 
	C851.862000,226.013992 850.741089,228.437119 851.276245,229.775635 
	C851.742859,230.942749 854.497314,231.734390 856.254089,231.759384 
	C868.079712,231.927551 879.910278,231.941406 891.735352,231.754242 
	C893.706238,231.723022 896.433899,231.063507 897.495361,229.682465 
	C906.014099,218.599365 914.257080,207.302719 922.486450,196.000046 
	C924.467529,193.279190 923.419006,191.583099 920.135132,191.487885 
	C916.140137,191.372086 912.132935,191.580383 908.144775,191.377426 
	C906.455566,191.291473 904.801453,190.515518 903.131348,190.053162 
	C903.755432,188.439240 904.068848,186.598877 905.053650,185.247910 
	C911.721741,176.100967 918.585144,167.096268 925.236694,157.937561 
	C926.209351,156.598358 926.390808,154.684586 926.938354,153.036652 
	C925.294250,152.504868 923.668213,151.594025 922.002502,151.514435 
	C917.514709,151.299988 913.005249,151.557785 908.514832,151.373184 
	C907.015930,151.311539 905.548889,150.478027 904.067261,149.997345 
	C904.544495,148.649155 904.732239,147.087357 905.544556,145.986389 
	C912.265381,136.877762 919.052734,127.816925 925.924927,118.821770 
	C929.160400,114.586815 932.876892,114.619423 936.120239,118.880112 
	C942.876038,127.755081 949.561768,136.684158 956.184265,145.658920 
	C957.164917,146.987823 957.644165,148.686691 958.927979,151.444214 
	C951.620605,151.444214 945.517334,151.339005 939.422607,151.520065 
	C937.946289,151.563919 935.699646,152.197281 935.252869,153.202301 
	C934.769226,154.290146 935.625000,156.383789 936.503845,157.600052 
	C941.865845,165.020493 947.400635,172.316086 953.275024,180.246689 
M571.042908,152.610886 
	C564.923645,141.548920 553.460693,136.823700 539.386475,139.452103 
	C528.683533,141.450897 520.035095,146.535080 514.309082,156.471588 
	C506.613098,132.084656 469.614258,134.170929 457.005249,156.831024 
	C457.005249,152.465347 456.867310,148.874039 457.047058,145.298721 
	C457.202911,142.198669 456.297882,140.710968 452.876740,140.775375 
	C444.213593,140.938477 435.543396,140.936020 426.880188,140.774261 
	C423.575134,140.712540 422.424835,142.082108 422.428711,145.190659 
	C422.462769,172.522430 422.470978,199.854309 422.417572,227.186020 
	C422.410889,230.605225 423.826050,231.940765 427.231232,231.885925 
	C435.228729,231.757126 443.239532,231.606323 451.225525,231.935791 
	C455.960876,232.131134 457.162079,230.384140 457.101593,225.847992 
	C456.866089,208.185440 456.890198,190.516174 457.153717,172.854416 
	C457.186188,170.680267 458.703735,167.372086 460.446838,166.566376 
	C472.225189,161.122238 481.097137,166.965134 481.141510,179.866501 
	C481.195435,195.532120 481.228394,211.198669 481.099640,226.863403 
	C481.069672,230.507492 482.312256,231.975876 486.025848,231.896301 
	C493.855133,231.728561 501.699799,231.615921 509.520020,231.930710 
	C514.289307,232.122711 516.001099,230.583801 515.937134,225.676483 
	C515.704834,207.847153 515.899231,190.012650 515.794250,172.180923 
	C515.776245,169.132004 516.445435,166.853668 519.646240,166.173737 
	C532.075867,163.533386 540.289429,165.358017 539.911072,180.545166 
	C539.533508,195.701599 539.953430,210.876450 539.747742,226.039490 
	C539.690247,230.273972 540.801025,232.091614 545.331238,231.925095 
	C553.153564,231.637558 560.999939,231.664810 568.824585,231.918182 
	C573.020508,232.054047 574.284058,230.522827 574.247864,226.404404 
	C574.076843,206.906967 574.355652,187.404251 574.041565,167.910385 
	C573.963013,163.034149 572.280945,158.183731 571.042908,152.610886 
M167.005890,165.499939 
	C167.005859,149.177948 166.920898,132.855148 167.072189,116.534569 
	C167.105392,112.954018 166.107986,111.337837 162.328217,111.398926 
	C153.336853,111.544228 144.341309,111.486954 135.348038,111.425514 
	C132.265411,111.404465 130.919052,112.482376 130.935120,115.828773 
	C131.048767,139.478333 130.702362,163.133438 131.084854,186.777374 
	C131.459671,209.946350 144.406464,225.759415 166.792068,231.187988 
	C180.432541,234.495819 194.173187,234.386368 207.817429,231.150269 
	C228.727798,226.190765 241.937866,211.428619 242.788071,189.928131 
	C243.761169,165.320251 243.338470,140.657730 243.571976,116.019402 
	C243.604782,112.558319 241.998383,111.330925 238.666748,111.406113 
	C232.674011,111.541359 226.676025,111.443130 220.680222,111.443039 
	C207.154129,111.442825 207.171600,111.443001 207.150009,124.743240 
	C207.117294,144.894165 207.254501,165.048157 206.936020,185.194778 
	C206.741562,197.495285 199.864243,203.898499 187.782227,203.993881 
	C174.806717,204.096329 167.918381,198.035294 167.209335,185.478806 
	C166.853027,179.168777 167.055908,172.827179 167.005890,165.499939 
M790.559387,206.500076 
	C790.559387,176.670319 790.501892,146.840317 790.627991,117.011086 
	C790.644836,113.021835 789.620544,111.233490 785.313843,111.368988 
	C777.322693,111.620384 769.313416,111.602753 761.320862,111.375107 
	C757.110352,111.255180 755.842957,112.893524 755.919434,116.970978 
	C756.131714,128.298996 756.002502,139.633591 755.978516,150.965530 
	C755.976135,152.102264 755.770569,153.238556 755.580322,155.182755 
	C747.325500,141.425613 735.460632,137.254059 721.277161,139.438538 
	C707.088684,141.623779 700.080627,151.527618 696.833557,164.608047 
	C693.154419,179.429214 693.162598,194.356537 697.123657,209.068314 
	C703.296509,231.994644 721.205627,236.531738 738.322083,231.853455 
	C745.974182,229.761993 751.197571,224.252304 755.993164,216.925003 
	C755.993164,220.907043 756.159851,223.729507 755.952576,226.524246 
	C755.670166,230.331543 757.030640,232.001877 761.046265,231.905655 
	C769.207275,231.710098 777.380676,231.686951 785.540039,231.914139 
	C789.656372,232.028732 790.711182,230.202850 790.607788,226.496429 
	C790.431274,220.168777 790.559082,213.832626 790.559387,206.500076 
M320.440765,191.500427 
	C320.441010,203.157715 320.517303,214.815796 320.397125,226.471848 
	C320.358917,230.181091 321.485260,232.000015 325.537628,231.905197 
	C333.859711,231.710464 342.189972,231.796021 350.515900,231.872543 
	C353.532166,231.900269 355.078339,231.023560 355.059418,227.603851 
	C354.946960,207.287552 355.268036,186.965515 354.904999,166.655029 
	C354.621918,150.819046 346.425446,140.790298 332.607208,139.381470 
	C326.953064,138.805008 320.975037,139.566895 315.370178,140.771042 
	C306.688263,142.636307 300.085541,148.007782 294.845520,156.904083 
	C294.845520,151.825912 294.755737,148.342422 294.872772,144.865891 
	C294.974030,141.857300 293.683197,140.747513 290.698151,140.787262 
	C282.040009,140.902557 273.376831,140.947357 264.720795,140.769135 
	C261.169800,140.696014 260.100616,142.126846 260.110199,145.492966 
	C260.187469,172.637558 260.192078,199.782578 260.107513,226.927124 
	C260.096039,230.615616 261.542114,231.960495 265.161407,231.893158 
	C273.152222,231.744522 281.153503,231.664597 289.138916,231.919830 
	C293.512665,232.059601 294.971161,230.475479 294.921631,226.125839 
	C294.735992,209.807755 294.847351,193.486298 294.847382,177.166107 
	C294.847412,166.451355 295.937927,165.344009 306.688568,165.179260 
	C307.686523,165.163956 308.692657,165.147217 309.682861,165.249084 
	C316.887390,165.990280 320.091614,169.254822 320.393799,176.513672 
	C320.587646,181.168640 320.437225,185.837952 320.440765,191.500427 
M679.842163,164.728729 
	C675.153503,151.249405 665.491089,143.277328 651.770752,140.547668 
	C645.468628,139.293869 638.871826,138.961716 632.425781,139.087845 
	C605.333679,139.617966 589.851685,154.189484 587.308838,181.101471 
	C584.778931,207.876923 598.570007,227.222504 623.678894,231.876358 
	C637.742737,234.483032 651.873413,233.968140 665.889343,231.599686 
	C677.043701,229.714783 676.994324,229.439590 679.074707,217.975845 
	C679.252808,216.994415 679.495911,216.024094 679.728394,215.053284 
	C680.578125,211.506302 679.534485,209.713028 675.537781,209.784103 
	C667.045349,209.935135 658.539795,210.060745 650.056396,209.745987 
	C644.603638,209.543671 639.079224,208.984863 633.770874,207.777359 
	C627.534973,206.358871 623.888550,202.091156 623.266174,195.170151 
	C640.606140,195.170151 657.735107,195.197159 674.863953,195.154480 
	C680.339417,195.140854 682.575928,193.517517 682.375366,188.207703 
	C682.088806,180.618805 680.866333,173.065247 679.842163,164.728729 
M384.522858,231.848480 
	C389.848206,231.848343 395.179199,231.697968 400.496979,231.898483 
	C404.329346,232.042999 405.902954,230.607422 405.891022,226.700134 
	C405.808685,199.740891 405.792328,172.781036 405.908478,145.822037 
	C405.925781,141.804764 404.351044,140.649124 400.549255,140.760834 
	C393.066956,140.980698 385.573639,140.823898 378.084900,140.825912 
	C371.158478,140.827789 371.153137,140.829514 371.152435,147.548950 
	C371.149963,171.512955 371.151489,195.476944 371.151489,219.440948 
	C371.151489,231.848572 371.151489,231.848572 384.522858,231.848480 
M407.274139,119.241356 
	C407.012604,108.969261 405.259766,105.637199 398.538818,105.136909 
	C391.617249,104.621696 384.604675,104.721268 377.671387,105.166351 
	C372.298401,105.511269 369.669128,108.517731 369.142029,113.899635 
	C368.851929,116.861977 368.856995,119.901718 369.159912,122.862473 
	C369.631348,127.470474 372.061462,130.825790 376.920013,131.201904 
	C383.196564,131.687790 389.528625,132.035294 395.807861,131.766724 
	C404.471771,131.396164 406.766815,128.733749 407.274139,119.241356 
z"/>
<path fill="#FCFDFD" opacity="1.000000" stroke="none" 
	d="
M953.076416,179.950012 
	C947.400635,172.316086 941.865845,165.020493 936.503845,157.600052 
	C935.625000,156.383789 934.769226,154.290146 935.252869,153.202301 
	C935.699646,152.197281 937.946289,151.563919 939.422607,151.520065 
	C945.517334,151.339005 951.620605,151.444214 958.927979,151.444214 
	C957.644165,148.686691 957.164917,146.987823 956.184265,145.658920 
	C949.561768,136.684158 942.876038,127.755081 936.120239,118.880112 
	C932.876892,114.619423 929.160400,114.586815 925.924927,118.821770 
	C919.052734,127.816925 912.265381,136.877762 905.544556,145.986389 
	C904.732239,147.087357 904.544495,148.649155 904.067261,149.997345 
	C905.548889,150.478027 907.015930,151.311539 908.514832,151.373184 
	C913.005249,151.557785 917.514709,151.299988 922.002502,151.514435 
	C923.668213,151.594025 925.294250,152.504868 926.938354,153.036652 
	C926.390808,154.684586 926.209351,156.598358 925.236694,157.937561 
	C918.585144,167.096268 911.721741,176.100967 905.053650,185.247910 
	C904.068848,186.598877 903.755432,188.439240 903.131348,190.053162 
	C904.801453,190.515518 906.455566,191.291473 908.144775,191.377426 
	C912.132935,191.580383 916.140137,191.372086 920.135132,191.487885 
	C923.419006,191.583099 924.467529,193.279190 922.486450,196.000046 
	C914.257080,207.302719 906.014099,218.599365 897.495361,229.682465 
	C896.433899,231.063507 893.706238,231.723022 891.735352,231.754242 
	C879.910278,231.941406 868.079712,231.927551 856.254089,231.759384 
	C854.497314,231.734390 851.742859,230.942749 851.276245,229.775635 
	C850.741089,228.437119 851.862000,226.013992 852.920105,224.530273 
	C859.298340,215.586411 865.876221,206.785187 872.356323,197.913589 
	C873.394287,196.492615 874.276123,194.957626 875.752808,192.663239 
	C873.130920,192.308823 871.426331,191.895126 869.718018,191.878983 
	C862.055481,191.806549 854.389282,191.955109 846.730591,191.768585 
	C844.899658,191.723969 842.220459,191.195816 841.527710,189.980316 
	C840.876587,188.837799 841.886108,186.168411 842.931396,184.726257 
	C859.830322,161.409027 876.781738,138.128448 893.974976,115.028435 
	C895.385193,113.133720 898.616394,111.629143 901.024780,111.595207 
	C920.512085,111.320618 940.006775,111.316078 959.493774,111.603004 
	C961.876160,111.638084 965.006470,113.284271 966.472046,115.194862 
	C984.102173,138.178467 1001.508484,161.334198 1018.870789,184.521713 
	C1019.956604,185.971863 1020.189697,188.060532 1020.819580,189.852142 
	C1018.899597,190.517212 1016.995117,191.697906 1015.056946,191.756073 
	C1007.567139,191.980789 1000.066284,191.818161 992.570007,191.869339 
	C990.834473,191.881180 989.100769,192.167633 986.278320,192.428131 
	C987.797852,194.899811 988.676697,196.569717 989.776428,198.078629 
	C996.246948,206.956924 1002.837646,215.748856 1009.204773,224.700089 
	C1010.245483,226.163162 1011.291199,228.744629 1010.669434,229.951248 
	C1010.053162,231.147415 1007.339417,231.744537 1005.534485,231.768356 
	C993.875122,231.922241 982.205200,232.068436 970.557190,231.673721 
	C968.012634,231.587494 964.743713,229.928329 963.173035,227.924149 
	C955.372803,217.970703 947.982239,207.693253 940.582214,197.432632 
	C939.629211,196.111084 939.461304,194.223297 938.929688,192.597809 
	C940.478027,192.212189 942.015076,191.560272 943.577026,191.493713 
	C947.401733,191.330734 951.242249,191.551544 955.068420,191.406586 
	C959.442017,191.240891 960.186768,189.763824 957.772339,186.233185 
	C956.364807,184.175079 954.780029,182.238144 953.076416,179.950012 
z"/>
<path fill="#FCFEFD" opacity="1.000000" stroke="none" 
	d="
M571.189453,152.966171 
	C572.280945,158.183731 573.963013,163.034149 574.041565,167.910385 
	C574.355652,187.404251 574.076843,206.906967 574.247864,226.404404 
	C574.284058,230.522827 573.020508,232.054047 568.824585,231.918182 
	C560.999939,231.664810 553.153564,231.637558 545.331238,231.925095 
	C540.801025,232.091614 539.690247,230.273972 539.747742,226.039490 
	C539.953430,210.876450 539.533508,195.701599 539.911072,180.545166 
	C540.289429,165.358017 532.075867,163.533386 519.646240,166.173737 
	C516.445435,166.853668 515.776245,169.132004 515.794250,172.180923 
	C515.899231,190.012650 515.704834,207.847153 515.937134,225.676483 
	C516.001099,230.583801 514.289307,232.122711 509.520020,231.930710 
	C501.699799,231.615921 493.855133,231.728561 486.025848,231.896301 
	C482.312256,231.975876 481.069672,230.507492 481.099640,226.863403 
	C481.228394,211.198669 481.195435,195.532120 481.141510,179.866501 
	C481.097137,166.965134 472.225189,161.122238 460.446838,166.566376 
	C458.703735,167.372086 457.186188,170.680267 457.153717,172.854416 
	C456.890198,190.516174 456.866089,208.185440 457.101593,225.847992 
	C457.162079,230.384140 455.960876,232.131134 451.225525,231.935791 
	C443.239532,231.606323 435.228729,231.757126 427.231232,231.885925 
	C423.826050,231.940765 422.410889,230.605225 422.417572,227.186020 
	C422.470978,199.854309 422.462769,172.522430 422.428711,145.190659 
	C422.424835,142.082108 423.575134,140.712540 426.880188,140.774261 
	C435.543396,140.936020 444.213593,140.938477 452.876740,140.775375 
	C456.297882,140.710968 457.202911,142.198669 457.047058,145.298721 
	C456.867310,148.874039 457.005249,152.465347 457.005249,156.831024 
	C469.614258,134.170929 506.613098,132.084656 514.309082,156.471588 
	C520.035095,146.535080 528.683533,141.450897 539.386475,139.452103 
	C553.460693,136.823700 564.923645,141.548920 571.189453,152.966171 
z"/>
<path fill="#FCFEFD" opacity="1.000000" stroke="none" 
	d="
M167.005890,165.999893 
	C167.055908,172.827179 166.853027,179.168777 167.209335,185.478806 
	C167.918381,198.035294 174.806717,204.096329 187.782227,203.993881 
	C199.864243,203.898499 206.741562,197.495285 206.936020,185.194778 
	C207.254501,165.048157 207.117294,144.894165 207.150009,124.743240 
	C207.171600,111.443001 207.154129,111.442825 220.680222,111.443039 
	C226.676025,111.443130 232.674011,111.541359 238.666748,111.406113 
	C241.998383,111.330925 243.604782,112.558319 243.571976,116.019402 
	C243.338470,140.657730 243.761169,165.320251 242.788071,189.928131 
	C241.937866,211.428619 228.727798,226.190765 207.817429,231.150269 
	C194.173187,234.386368 180.432541,234.495819 166.792068,231.187988 
	C144.406464,225.759415 131.459671,209.946350 131.084854,186.777374 
	C130.702362,163.133438 131.048767,139.478333 130.935120,115.828773 
	C130.919052,112.482376 132.265411,111.404465 135.348038,111.425514 
	C144.341309,111.486954 153.336853,111.544228 162.328217,111.398926 
	C166.107986,111.337837 167.105392,112.954018 167.072189,116.534569 
	C166.920898,132.855148 167.005859,149.177948 167.005890,165.999893 
z"/>
<path fill="#FCFDFD" opacity="1.000000" stroke="none" 
	d="
M790.559204,207.000061 
	C790.559082,213.832626 790.431274,220.168777 790.607788,226.496429 
	C790.711182,230.202850 789.656372,232.028732 785.540039,231.914139 
	C777.380676,231.686951 769.207275,231.710098 761.046265,231.905655 
	C757.030640,232.001877 755.670166,230.331543 755.952576,226.524246 
	C756.159851,223.729507 755.993164,220.907043 755.993164,216.925003 
	C751.197571,224.252304 745.974182,229.761993 738.322083,231.853455 
	C721.205627,236.531738 703.296509,231.994644 697.123657,209.068314 
	C693.162598,194.356537 693.154419,179.429214 696.833557,164.608047 
	C700.080627,151.527618 707.088684,141.623779 721.277161,139.438538 
	C735.460632,137.254059 747.325500,141.425613 755.580322,155.182755 
	C755.770569,153.238556 755.976135,152.102264 755.978516,150.965530 
	C756.002502,139.633591 756.131714,128.298996 755.919434,116.970978 
	C755.842957,112.893524 757.110352,111.255180 761.320862,111.375107 
	C769.313416,111.602753 777.322693,111.620384 785.313843,111.368988 
	C789.620544,111.233490 790.644836,113.021835 790.627991,117.011086 
	C790.501892,146.840317 790.559387,176.670319 790.559204,207.000061 
M755.996521,183.507782 
	C755.995422,179.523010 756.286560,175.507141 755.867126,171.566895 
	C755.664246,169.661224 754.588440,167.283997 753.114380,166.174896 
	C746.384705,161.111343 735.462402,164.115906 732.851746,172.110397 
	C731.244812,177.031662 730.736755,182.509109 730.807312,187.722336 
	C730.870911,192.420639 731.742615,197.351242 733.434753,201.724030 
	C735.659180,207.472488 742.046265,209.538330 749.175842,207.880005 
	C754.391235,206.666916 755.992188,204.104736 755.996155,196.956787 
	C755.998413,192.805984 755.996582,188.655167 755.996521,183.507782 
z"/>
<path fill="#FCFDFD" opacity="1.000000" stroke="none" 
	d="
M320.440918,191.000626 
	C320.437225,185.837952 320.587646,181.168640 320.393799,176.513672 
	C320.091614,169.254822 316.887390,165.990280 309.682861,165.249084 
	C308.692657,165.147217 307.686523,165.163956 306.688568,165.179260 
	C295.937927,165.344009 294.847412,166.451355 294.847382,177.166107 
	C294.847351,193.486298 294.735992,209.807755 294.921631,226.125839 
	C294.971161,230.475479 293.512665,232.059601 289.138916,231.919830 
	C281.153503,231.664597 273.152222,231.744522 265.161407,231.893158 
	C261.542114,231.960495 260.096039,230.615616 260.107513,226.927124 
	C260.192078,199.782578 260.187469,172.637558 260.110199,145.492966 
	C260.100616,142.126846 261.169800,140.696014 264.720795,140.769135 
	C273.376831,140.947357 282.040009,140.902557 290.698151,140.787262 
	C293.683197,140.747513 294.974030,141.857300 294.872772,144.865891 
	C294.755737,148.342422 294.845520,151.825912 294.845520,156.904083 
	C300.085541,148.007782 306.688263,142.636307 315.370178,140.771042 
	C320.975037,139.566895 326.953064,138.805008 332.607208,139.381470 
	C346.425446,140.790298 354.621918,150.819046 354.904999,166.655029 
	C355.268036,186.965515 354.946960,207.287552 355.059418,227.603851 
	C355.078339,231.023560 353.532166,231.900269 350.515900,231.872543 
	C342.189972,231.796021 333.859711,231.710464 325.537628,231.905197 
	C321.485260,232.000015 320.358917,230.181091 320.397125,226.471848 
	C320.517303,214.815796 320.441010,203.157715 320.440918,191.000626 
z"/>
<path fill="#FDFEFD" opacity="1.000000" stroke="none" 
	d="
M679.942871,165.112671 
	C680.866333,173.065247 682.088806,180.618805 682.375366,188.207703 
	C682.575928,193.517517 680.339417,195.140854 674.863953,195.154480 
	C657.735107,195.197159 640.606140,195.170151 623.266174,195.170151 
	C623.888550,202.091156 627.534973,206.358871 633.770874,207.777359 
	C639.079224,208.984863 644.603638,209.543671 650.056396,209.745987 
	C658.539795,210.060745 667.045349,209.935135 675.537781,209.784103 
	C679.534485,209.713028 680.578125,211.506302 679.728394,215.053284 
	C679.495911,216.024094 679.252808,216.994415 679.074707,217.975845 
	C676.994324,229.439590 677.043701,229.714783 665.889343,231.599686 
	C651.873413,233.968140 637.742737,234.483032 623.678894,231.876358 
	C598.570007,227.222504 584.778931,207.876923 587.308838,181.101471 
	C589.851685,154.189484 605.333679,139.617966 632.425781,139.087845 
	C638.871826,138.961716 645.468628,139.293869 651.770752,140.547668 
	C665.491089,143.277328 675.153503,151.249405 679.942871,165.112671 
M644.474976,162.734940 
	C631.849060,158.025360 622.795532,164.380844 623.206055,177.728104 
	C632.371155,177.728104 641.531494,177.728104 650.918884,177.728104 
	C650.463196,171.928436 650.131531,166.609650 644.474976,162.734940 
z"/>
<path fill="#FBFDFC" opacity="1.000000" stroke="none" 
	d="
M384.029236,231.848465 
	C371.151489,231.848572 371.151489,231.848572 371.151489,219.440948 
	C371.151489,195.476944 371.149963,171.512955 371.152435,147.548950 
	C371.153137,140.829514 371.158478,140.827789 378.084900,140.825912 
	C385.573639,140.823898 393.066956,140.980698 400.549255,140.760834 
	C404.351044,140.649124 405.925781,141.804764 405.908478,145.822037 
	C405.792328,172.781036 405.808685,199.740891 405.891022,226.700134 
	C405.902954,230.607422 404.329346,232.042999 400.496979,231.898483 
	C395.179199,231.697968 389.848206,231.848343 384.029236,231.848465 
z"/>
<path fill="#FBFDFC" opacity="1.000000" stroke="none" 
	d="
M407.233276,119.647888 
	C406.766815,128.733749 404.471771,131.396164 395.807861,131.766724 
	C389.528625,132.035294 383.196564,131.687790 376.920013,131.201904 
	C372.061462,130.825790 369.631348,127.470474 369.159912,122.862473 
	C368.856995,119.901718 368.851929,116.861977 369.142029,113.899635 
	C369.669128,108.517731 372.298401,105.511269 377.671387,105.166351 
	C384.604675,104.721268 391.617249,104.621696 398.538818,105.136909 
	C405.259766,105.637199 407.012604,108.969261 407.233276,119.647888 
z"/>
<path fill="#1A9A5E" opacity="1.000000" stroke="none" 
	d="
M755.996582,184.006073 
	C755.996582,188.655167 755.998413,192.805984 755.996155,196.956787 
	C755.992188,204.104736 754.391235,206.666916 749.175842,207.880005 
	C742.046265,209.538330 735.659180,207.472488 733.434753,201.724030 
	C731.742615,197.351242 730.870911,192.420639 730.807312,187.722336 
	C730.736755,182.509109 731.244812,177.031662 732.851746,172.110397 
	C735.462402,164.115906 746.384705,161.111343 753.114380,166.174896 
	C754.588440,167.283997 755.664246,169.661224 755.867126,171.566895 
	C756.286560,175.507141 755.995422,179.523010 755.996582,184.006073 
z"/>
<path fill="#1B9B5F" opacity="1.000000" stroke="none" 
	d="
M644.819092,162.913635 
	C650.131531,166.609650 650.463196,171.928436 650.918884,177.728104 
	C641.531494,177.728104 632.371155,177.728104 623.206055,177.728104 
	C622.795532,164.380844 631.849060,158.025360 644.819092,162.913635 
z"/>
</svg>